<?xml version="1.0" encoding="utf-8"?>
<!-- Generator: Adobe Illustrator 28.0.0, SVG Export Plug-In . SVG Version: 6.00 Build 0)  -->
<svg version="1.1" id="Capa_1" xmlns="http://www.w3.org/2000/svg" xmlns:xlink="http://www.w3.org/1999/xlink" x="0px" y="0px"
	 viewBox="0 0 347.4 320.7" style="enable-background:new 0 0 347.4 320.7;" xml:space="preserve">
<style type="text/css">
	.st0{fill:#FFFFFF;}
	.st1{fill:#8C733B;}
</style>
<path class="st0" d="M228.7,30.6l4.3,5.5l4.7,19.1c0,0,1.3,5.1,0,7.8s-2.6,7.9-2.6,7.9l-8,12.7c0,0,2.1,18.1,2.8,20
	s16.6,10.1,16.6,10.1s27.7-15.6,28.5-17.7s5.8-24.4,5.8-24.4l-4.1-8.1l-1.2-7l2.4-8.6l2.6-10.4l-5.9-3.7l2.8-4.8l7.8-8.4L274.9,8.7
	l-14.5-0.4c0,0-14.8-0.4-17.2,0.2s-18.9,10.3-18.9,10.3"/>
<polyline class="st0" points="49.2,3.3 57.5,0.3 66.9,1.5 76.4,3.2 67.7,88.6 41.9,88 40.9,42.6 "/>
<g>
	<path class="st1" d="M62.7,158.8c0.7,10.8,1.4,21.6,2.1,32.4c0.3,4.9,0.6,9.8,0.9,14.7c0.5,6.6,0.8,13.3,1.6,19.9
		c0.3,3,1.6,5.8,2.3,8.7c0.8,3.1,1.4,6.3,2.1,9.5c2.3,10.1,3.6,20.3,4.9,30.6c1.6,12.1,2.1,24.3,2.4,36.5c0,0.1,0,0.3,0,0.8
		c-4.9,1-9.7,2.1-14.6,3.1c-2.2,0.4-4.4,0.5-6.6,0.9c-1.3,0.2-2.4-0.3-3.3-1.1c-1.3-1.1-2.7-2.2-4-3.5c-0.6-0.6-1.1-1.4-1.3-2.1
		c-1.6-6-3.1-12.1-4.7-18.1c-1.3-5-2.5-10-3.8-15c-1.2-5.1-2.5-10.2-3.7-15.3c-1.2-4.8-2.3-9.7-3.4-14.5c-1.3-5.5-2.6-11.1-3.8-16.6
		c-1.3-6.1-2.6-12.1-3.7-18.2c-1.3-7.4-2.3-14.9-3.5-22.3c-2.5-15.6-3-31.3-3.8-47c-0.1-3.1-0.5-6.2-1.1-9.3
		c-0.7-3.6-0.2-7,0.4-10.4c0.8-4,1.6-8,2.3-12c0.2-1.2,0-2.6-0.4-3.9c-0.6-2.1-1.5-4-2.4-6.2c-5.4,2.8-6.9,7.8-8,13.4
		c-0.2-0.8-0.4-1.2-0.5-1.7C8,107,6.3,101.9,4.8,96.8c-1.2-4.3-2.2-8.6-3.6-12.8c-1.8-5.5-1.4-11-0.5-16.4c0.8-4.7,2-9.3,3.3-14
		c1-3.8,2.3-7.5,3.7-11.2c1.1-3.2,2.3-6.3,3.7-9.3C13.7,28,16,22.9,18.6,18c0.8-1.5,1.3-2.8,1.2-4.4c0-1.4,0.6-2.2,1.9-2.6
		C26.8,9.3,31.8,7.5,37,6c4-1.2,8.2-1.9,12.2-2.7c0.2,1.4,0.1,2.7,0.5,3.7c0.4,1.1,1.4,1.9,2.1,2.8C53.6,6.4,55.3,3.2,57,0
		c0.2,0.1,0.3,0.2,0.5,0.3c-0.3,0.6-0.6,1.1-0.9,1.7c-0.3,0.6-0.7,1.3-0.9,1.9c-0.8,1.9-1.7,3.8-2.4,5.8c-0.5,1.5-1.2,1.8-2.4,0.6
		c-0.8-0.8-1.4-1.7-2.3-2.8c-1,6.1-2.2,11.9-3,17.8c-1,7.2-1.8,14.5-2.4,21.8c-0.5,6.5-0.8,13.1-1,19.7C42,73.8,42,80.9,41.9,88.1
		c0,0.2,0.1,0.5,0.1,0.7h11.4c0-1.7,0-3.3,0-4.9c0-12-0.2-24-0.1-36.1c0-3.5,0.9-6.9,1.5-10.4c0.2-1.2,0.9-2.3,1.5-3.5
		c-0.5,2.5-1.2,5-1.4,7.5c-0.4,6.1-0.8,12.1-0.8,18.2c-0.1,9.6,0,19.3,0,29.1h13.6c0-0.9-0.1-1.7-0.1-2.5
		c-0.1-5.3-0.4-10.6-0.3-15.8c0.2-11.5,0.1-23.1,1.9-34.5c1-6.5,2.4-13,3.7-19.5c0.4-1.9,1.1-3.7,1.7-5.9c-1.4,0.7-2.5,1.3-3.5,1.8
		c-1.2,0.6-1.8,0.3-2.2-1c-0.8-3.2-1.5-6.3-2.1-9.6c1.2,3.2,2.3,6.4,3.5,9.8c1.5-0.8,2.8-1.5,4.2-2.3c0.3-0.2,0.5-0.8,0.6-1.2
		c0.4-1.4,0.8-2.9,1.3-4.5c1.7,0.4,3.2,0.7,4.8,1.1c8.3,2.2,16.3,5,23.9,9c1.2,0.6,2.4,1.3,3.6,2.1c1.3,0.9,1.5,1.8,0.8,3.3
		c-0.1,0.3-0.3,0.6-0.2,0.9c1.2,6.2,2.4,12.4,3.7,18.5c1.2,5.9,2.3,11.8,3.4,17.7c1.3,6.8,2.3,13.5,3.8,20.3
		c1.9,8.8,2.9,17.7,3.7,26.6c1,10.5,1.7,21.1,2.6,31.6c0.1,1-0.2,1.6-1.1,2c-3.7,1.8-7.5,2.8-11.6,2.4c-2.7-0.2-5.4-0.7-8.1-1
		c-0.9-0.1-1.2-0.5-1.3-1.4c-0.5-4.9-1.1-9.7-1.7-14.6c-1-7.9-2-15.8-3-23.7c-0.2-1.9-0.4-3.9-0.7-5.8c-0.7-5-1.8-9.9-3.7-14.7
		c-1.1-2.9-2.2-5.9-3.2-8.6c-1.5,5.1-0.3,10.3,0.7,15.5c0.5,2.4,1,4.8,1.5,7.1c1.3,5.8,2.7,11.6,3.8,17.5c0.4,2,0,4.2,0.3,6.2
		c1.2,7.5,2.4,15,3.7,22.4c1.1,6.7,2.3,13.4,3.4,20.2c1.2,7.3,2.5,14.6,3.7,21.9c1.2,7,2.4,14,3.7,21c1.1,6,2.2,11.9,3.4,17.9
		c1.2,5.8,2.5,11.6,3.7,17.4c1.3,6.4,2.5,12.8,3.7,19.2c1.2,6.6,2.3,13.2,3.5,19.7c1.2,7.2,2.5,14.5,3.7,21.7
		c0.5,2.6,0.9,5.3,1.5,7.9c0.3,1.1-0.2,1.9-0.9,2.5c-2.6,2.7-5.3,5.2-8.5,7.3c-1.8,1.2-3.6,1.8-5.7,1.7c-4.2-0.1-8.3-0.8-12.3-2.1
		c-0.9-0.3-1.3-0.7-1.6-1.7c-1.4-5.4-2.9-10.7-4.4-16c-1.2-4.4-2.4-8.7-3.6-13.1c-1.2-4.2-2.3-8.4-3.5-12.6
		c-1.2-4.4-2.4-8.8-3.6-13.3c-1.3-4.7-2.6-9.4-3.8-14.1c-1.1-4.1-2.2-8.3-3.3-12.5c-1.3-5-2.6-10.1-3.9-15.1
		c-1.2-4.8-2.4-9.5-3.6-14.3c-1.3-5.1-2.6-10.2-3.8-15.3c-1.1-4.3-2.1-8.6-3.2-12.9c-1.2-4.8-2.5-9.6-3.8-14.4
		C62.8,158.8,62.8,158.8,62.7,158.8L62.7,158.8z M88.8,43.5c0.1-0.1,0.2-0.2,0.2-0.4c-1.8-1.4-3.7-2.8-5.5-4.2
		c-0.2-0.1-0.4-0.1-0.7-0.1c-0.8,0.2-3.2,2.8-3.3,3.9C82.6,43.1,85.7,43.3,88.8,43.5L88.8,43.5z"/>
	<path class="st1" d="M266.2,50.8c-1,1.9,0.3,3.5,0.9,5.3c-1.1-0.7-2.1-1.3-3.1-1.8c-0.7-0.3-1.5-0.5-2.1-0.5
		c-0.5,0.1-1.3,0.7-1.4,1.1c-0.1,0.5,0.4,1.5,0.9,1.7c1.3,0.7,2.7,1.1,4,1.7c0.4,0.2,0.9,0.3,1.3,0.4c-1.7,1-3.4,2.1-5,3.1
		c-1,0.6-1.4,1.4-0.9,2.3c0.6,1,1.7,0.9,2.5,0.4c1.4-0.9,2.7-2,4.1-3c0.2-0.2,0.4-0.5,0.6-0.8c0.1,0.1,0.2,0.1,0.3,0.2
		c-0.3,0.9-0.7,1.8-1,2.7c-0.4,1.2-0.7,2.4-1,3.6c-0.1,0.3,0.1,1,0.3,1.1c0.4,0.1,1,0,1.3-0.2c0.7-0.9,1.3-1.9,1.8-2.9
		c0.2-0.5,0.2-1.1,0.4-1.7c1.1,0.9,2.1,1.9,3.3,2.7c0.5,0.3,1.3,0.3,1.9,0.5c0-0.7,0.3-1.5,0-2.1c-0.6-1.2-1.4-2.2-2.2-3.5
		c1.1-0.4,2.2-0.8,3.5-1.3c0,1.4-0.2,2.7,0.1,3.9c0.2,0.9,0.8,1.7,1.3,2.6c-0.8,0.6-2.2,1.1-1.5,2.8c0.8,1.8,2.1,1.3,3.5,0.9
		c0.3,0.7,0.5,1.2,0.7,1.8c1.9,5.2,3.7,10.4,5.7,15.6c2,5.4,2.9,11.1,3.8,16.7c2.2,12.9,1.5,25.9,0.6,38.8
		c-0.8,12.2-2.1,24.4-3,36.6c-0.4,5.9-1,12,0.5,17.8c1.5,5.7,3.7,11.2,5.6,16.8c0.5,1.5,1.2,2.8,1.8,4.3c1.7,4.4,3.5,8.8,5.2,13.2
		c1.2,3,2.5,5.9,3.7,8.9c1.1,2.7,2.3,5.5,3.4,8.2c1.2,2.9,2.5,5.8,3.7,8.7c1.2,3,2.5,5.9,3.8,8.9c1.1,2.6,2.3,5.3,3.4,7.9
		c1.2,2.9,2.4,5.7,3.7,8.6c0.8,1.8,1.6,3.6,2.5,5.4c0.2,0.4,0.7,0.9,1.2,1c5.3,1.5,10.4,3.6,15.1,6.5c1.8,1.1,3.4,2.4,5,3.8
		c1.4,1.2,1.6,2.5,0.2,3.8c-1.6,1.4-3.4,2.7-5.4,3.6c-9.4,4.6-19.5,6-29.8,7.1c-7,0.8-14.1,1.5-21.1,2.6c-4.4,0.7-8.6,2-12.9,2.9
		c-6.6,1.3-13.2,2-19.8,0.4c-3.8-0.9-7-2.7-9.9-5.4c-2.9-2.7-3.1-6.3-4-9.6c-0.7-2.7-1.2-5.4-1.8-8.4c-13-1.1-26.1-3.7-39.4,1
		c0.3-2,0.6-3.7,0.8-5.4c0.7-6,1.5-12.1,2.2-18.1c0.3-2.8,0.6-5.4,1.9-8c1.1-2.2,1.7-4.7,2.6-7.1c1.4-3.8,2.8-7.6,4.2-11.4
		c1.1-2.9,2.2-5.9,3.3-8.8c1.3-3.5,2.6-7,3.9-10.4c1-2.7,2-5.5,3-8.2c1.4-3.7,2.7-7.4,4.1-11.1c1.2-3.2,2.3-6.4,3.5-9.5
		c1-2.6,1.9-5.3,2.9-7.9c0.2-0.5,0.3-1.1,0.3-1.7c-0.3-13.3-0.7-26.5-1.1-39.8c0-0.1-0.1-0.3-0.1-0.6c-0.7,0.9-1.3,1.7-1.8,2.5
		c-1.6,2.6-3.1,5.3-4.6,7.9c-1.8,3-3.5,6.1-5.2,9.1c-2.3,4-4.6,8-7.1,11.9c-2.7,4.4-5.5,8.6-8.3,12.9c-0.1,0.2-0.3,0.5-0.4,0.8
		c-2.5,5-4.4,10.1-5.9,15.5c-2,7-2.7,14.2-4,21.4c-2,11.2-2.6,22.5-3.4,33.8c-0.3,3.8-1.9,7.1-4.1,10.2c-0.1,0.1-0.2,0.3-0.3,0.5
		c-1.9,3.8-3.8,7.6-5.6,11.4c-1.2,2.5-2.4,5-3.1,7.6c-0.9,3.5-1.3,7-2,10.8c-0.2,0-0.8,0-1.3,0c-9.3-0.8-18.6-2.1-27.6-4.6
		c-3.8-1-7.5-2.5-11-4.2c-3.4-1.7-3.3-4.2,0.2-6.9c4.2-3.1,9.1-4.5,14.2-5.6c0.9-0.2,1.5-0.6,1.9-1.4c3-5.2,6.1-10.4,9-15.5
		c2.4-4.2,4.7-8.4,7-12.6c2.5-4.6,5-9.3,7.5-13.9c2.4-4.4,4.7-8.8,7.1-13.2c2.5-4.7,5-9.4,7.5-14.1c2.4-4.4,4.7-8.9,7.1-13.3
		c2.1-3.8,4-7.8,6.4-11.4c2.8-4.2,3.6-8.9,4-13.6c1.3-13.5,2.3-27.1,3.5-40.6c0.2-2.8,0.4-5.7,0.9-8.5c0.9-5.7,1.9-11.4,3.2-17
		c0.9-4.1,2.5-8,3.9-12c0.9-2.7,2.1-5.3,3.2-7.8c1.1-2.4,2.2-4.8,3.4-7.2c0.1-0.3,0.7-0.6,1-0.6c1.9,0.1,3.8,0.3,5.8,0.5
		c-1.9,0.9-3.9,1.8-5.8,2.7c-0.2,0.1-0.5,0.2-0.7,0.4c-0.8,0.7-0.7,1.3,0.4,1.6c1.7,0.5,3.1-0.6,4.6-1.2c0.3-0.1,0.6-0.4,1-0.6
		c0,1.5-0.1,2.8,0.1,4.2c0.1,0.6,0.6,1.1,0.9,1.6c0.6-0.4,1.5-0.8,1.8-1.4c0.5-1.2,0.7-2.6,1-4c1.3,0.5,2.6,1,3.9,1.5
		c0.4,0.2,0.9,0.3,1.2,0.3c0.7-0.2,1.3-0.5,1.9-0.8c-0.3-0.6-0.5-1.5-1-1.9c-1.2-0.8-2.6-1.3-4.1-2.1c1.4-0.4,2.8-0.7,4-1.3
		c0.7-0.3,1.3-1.1,1.9-1.7c-0.8-0.1-1.6-0.4-2.3-0.3c-1,0.1-1.9,0.4-2.9,0.6c0.5-1.3,1-2.6,1.3-3.8c0.1-0.6-0.3-1.4-0.4-2.1
		c-0.7,0.3-1.7,0.5-2.1,1c-0.7,0.8-1,1.9-1.6,3c-0.2-1.2-0.4-2.3-0.7-3.3c-0.2-0.6-0.5-1.2-0.9-1.5c-0.6-0.3-1.5-0.6-2-0.3
		c-0.4,0.2-0.8,1.2-0.7,1.8c0.4,1.7,1.1,3.3,1.7,5c-1.5-0.4-3.2-0.9-5.1-1.5c0.9-1.6,1.8-3.2,2.6-4.7c0.8-1.4,1.5-2.8,2.2-4.1
		c0.6-1.2,0.6-1.2,2.3-1c-0.6,0.4-1.1,0.6-1.4,0.9c-0.6,0.5-1.4,1.1-0.7,2c0.6,0.8,1.6,0.9,2.4,0.3c0.5-0.3,0.9-0.8,1.3-1.2
		c0.7,0.6,1.2,1.4,2,1.7c0.8,0.2,1.9,0.1,2.6-0.3c0.8-0.5,0.1-1.3-0.4-1.9c-0.5-0.6-1-1.3-1.6-2c1-0.3,1.9-0.6,2.8-0.9
		c0.4-0.2,0.9-0.8,0.8-1c-0.1-0.4-0.6-0.9-1.1-0.9c-0.8-0.2-1.7,0-2.5,0c-0.1-1.9-1-2.9-2.5-3c0.1-1.5,0.3-3.1,0.4-4.6
		c1.3-0.5,3.3-0.3,3.1-2.5c-0.1-1.5-1.3-1.7-2.1-1.8c-0.1-1.1,0.3-2.6-0.3-3.1c-0.6-0.5-2-0.2-3.2-0.3c-0.3-0.7-0.7-1.8-1.3-3.2
		c1.7,0.6,2.8,0,3.9-1.9c0.4,0.7,0.5,1.2,0.9,1.5c0.4,0.4,1,1,1.5,1c0.8,0,1.6-0.3,2.2-0.8c0.2-0.2-0.2-1.4-0.6-1.9
		c-0.4-0.5-1.1-0.9-1.7-1.3c0.1-0.2,0.2-0.3,0.2-0.5c0.6-0.2,1.4-0.2,1.9-0.5c0.6-0.4,1.2-1,1.7-1.4c-0.7-0.3-1.4-0.7-2.1-0.9
		c-0.5-0.1-1,0.1-1.6,0.1c-0.2-1.1,0.7-2.9-1.5-3c-1.5,0-2,0.8-2.1,3.2c-1.4-0.6-2.7-1.3-3.9,0.2c-1.1-2.5-1.2-4.4-0.1-5
		c0.8,1.2,1.9,1.9,3.3,1.4c1.3-0.5,1.6-1.7,1.5-2.9c1.3-0.4,3.1-0.2,3.1-2.3c0-1.8-1.5-1.8-2.5-2c0.2-1.1,0.4-2.2,0.7-3.5
		c0.8-0.4,1.9-1,3.4-1.7c-0.2,0.9-0.4,1.6-0.4,2.2c0,0.9,0,1.8,0.2,2.7c0.2,1.1,0.9,1.4,1.8,0.9c0.8,1.2,1.6,2.3,2.5,3.6
		c-1.2,0-2.3,0-3.5,0c-0.5,0-1.1,0-1.5,0.2c-0.5,0.2-1.2,0.7-1.1,1c0.1,0.5,0.6,1.1,1,1.3c1.1,0.4,2.3,0.5,3.5,0.7
		c0.4,0.1,0.9,0.1,1.6,0.2c-0.5,0.9-1,1.5-1.3,2.3c-0.3,0.9-0.6,1.9-0.7,2.9c0,0.5,0.3,1.2,0.7,1.4c0.5,0.2,1.4,0,1.7-0.3
		c0.7-0.8,1.2-1.8,1.7-2.8c0.3-0.5,0.6-1.1,0.9-1.8c0.7,1.6,1.3,3.1,2,4.4c0.3,0.5,1,0.7,1.5,1c0.1-0.5,0.5-1.2,0.4-1.7
		c-0.3-1.1-0.8-2.2-1.2-3.4c1.4,0.4,2.7,0.9,4,1.2c0.9,0.2,2.2,0.6,2.6-0.7c0.4-1.2-0.9-1.6-1.8-2c-0.8-0.4-1.7-0.6-2.5-1.1
		c0.7-0.1,1.5-0.2,2.2-0.4c0.9-0.3,1.9-0.6,2.7-1.1c0.4-0.3,0.9-1.3,0.8-1.4c-0.5-0.5-1.3-1.2-1.9-1.2c-1.4,0.2-2.7,0.8-4,1.3
		c-0.6,0.2-1.2,0.6-1.8,0.9c0.6-2.1,1.1-4.1,1.7-6.1c1.2,1,2.4,0.1,3.3-0.5c0.9,0.8,1.5,1.9,2.5,2.3c1.6,0.6,2.5-0.4,2-2
		c-0.3-0.8-0.7-1.5-1-2.4c1-0.1,2-0.2,3-0.4c0.4-0.1,0.7-0.6,1.1-0.9c-0.4-0.4-0.6-0.9-1-1c-0.7-0.3-1.5-0.3-2.4-0.5
		c0.2-0.5,0.3-0.8,0.5-1.2c1.6,0.2,3.2,0.5,4.7,0.7c-0.5,1.5-1,2.9-1.4,4.4c-0.2,0.8-0.4,2,0.6,2.1c0.7,0.1,1.8-0.4,2.2-1
		c0.7-0.9,1-2.1,1.5-3.2c0.1-0.2,0.2-0.3,0.2-0.4c0.8,1.4,1.5,2.9,2.4,4.3c0.2,0.4,0.8,0.6,1.2,0.8c0.1-0.5,0.5-1,0.4-1.4
		c-0.2-1.2-0.6-2.3-0.9-3.6c0.9,0.3,1.8,0.5,2.6,0.8c0.5,0.1,1,0.3,1.5,0.4c0.9,0.1,2,0.4,2.4-0.7c0.4-1.1-0.7-1.5-1.5-1.8
		c-1-0.4-2-0.8-3.1-1.3c1.2-0.3,2.3-0.5,3.4-0.8c0.6-0.2,1.3-0.4,1.6-0.8c0.4-0.4,0.7-1.2,0.5-1.7c-0.1-0.5-1-1.1-1.4-1
		c-1.7,0.4-3.4,1.1-5.1,1.7c-0.3,0.1-0.6,0.3-1,0.5c0.4-1.5,0.8-2.7,1-4c0.1-0.6,0.3-1.4,0.1-2c-0.2-0.7-0.8-1.5-1.4-1.7
		c-0.9-0.3-1.9,0.3-2,1.3c-0.3,1.9-0.4,3.9-0.6,5.9c-0.2-0.3-0.4-0.8-0.6-1.2c-0.9-1.4-1.8-2.9-2.7-4.3c-0.3-0.4-0.8-0.5-1.3-0.8
		c-0.2,0.5-0.8,1.2-0.6,1.6c0.4,1.2,1,2.3,1.6,3.5c0.1,0.2,0.3,0.4,0.6,0.8c-0.6,0-1.1,0-1.5,0c-1.9,0.2-3.9,0.3-5.7,0.9
		c-0.8,0.2-1.3,1.5-2,2.2c-0.8-0.2-1.8-0.6-2.9-0.7c-0.4,0-1,0.7-1.3,1.2c-0.6,1.1,0,1.7,2.6,2.6c-0.6,0.3-1.1,0.5-1.5,0.9
		c-0.4,0.3-0.8,0.7-1.2,1.1c-0.1-0.1-0.4-0.3-0.4-0.4c0.7-1.5-0.4-2.1-1.3-2.7c-1.1-0.8-2.3-1.3-3.5-1.9c1.5-0.5,3-0.9,4.5-1.4
		c0.4-0.1,0.7-0.2,1-0.5c0.2-0.2,0.5-0.6,0.4-0.8c-0.1-0.3-0.5-0.6-0.8-0.6c-1,0-2,0.2-3,0.3c-0.6,0.1-1.1,0.2-1.7,0.3
		c0.6-1.2,1.2-2.3,1.6-3.5c0.3-0.8,0.8-2-0.4-2.5c-1-0.5-1.8,0.4-2.3,1.2c-0.5,0.8-0.9,1.7-1.4,2.5c-0.4-1.3-0.6-2.6-1-3.8
		c-0.5-1.5-1.4-2-2.4-1.5c-1.2,0.6-1.6,1.4-0.8,2.9c0.6,1.2,1,2.6,1.6,4.1c-1.4-0.5-2.8-1-4.1-1.4c-0.8-0.2-1.7-0.4-2.5-0.3
		c-0.6,0.1-1.4,0.8-1.5,1.3c-0.1,0.4,0.5,1.4,1,1.6c1.5,0.5,3.1,0.7,4.7,1c0.6,0.1,1.2,0,1.8,0.3c-1.6,0.6-3.1,1.1-4.7,1.8
		c-0.7,0.3-1.4,0.6-2,1.1c-0.3,0.2-0.4,0.6-0.5,0.9c-0.1,0.4-0.1,0.7-0.2,1.1c-0.4-0.2-0.9-0.2-1.2-0.5c-0.7-0.8-1.5-1-2.6-0.6
		c-1.4,0.6-1.6,1.4-0.7,3.3c-0.8,0-1.8-0.2-2.4,0.2c-0.6,0.4-0.9,1.3-1.5,2.1c-1.1-0.5-2.5-1.2-3.9-1.9c-2.5-1.3-5.1-2.6-7.6-3.9
		c-0.3-0.2-0.8-0.7-0.8-1c0.5-3.5,1.2-6.8,3.8-9.4c2.7-2.9,6.3-3.9,10.1-4.2c3.5-0.3,7-0.7,10.5-1.1c1.7-0.2,3.6-0.4,3.9-2.8
		c5.3,0.7,10.5,0.8,15.7-0.5c1.4,2.7,3.9,2.5,6.3,2.6c0,0.2,0,0.3,0,0.4c-0.9,0.5-1.8,1.2-1.1,2.2c0.7,1.1,1.6,0.2,2.4-0.2
		c0.3-0.1,0.6-0.3,1-0.5c0.1,0.7,0.2,1.3,0.4,1.8c0.1,0.3,0.5,0.5,0.7,0.8c0.3-0.3,0.6-0.6,0.7-0.9c0.2-0.4,0.1-0.8,0.2-1.1
		c0.8-0.1,1.6-0.1,2.2-0.5c0.2-0.1,0-1.1,0-1.7c5.2,0,9.8,2.4,11.7,7.5c0,0.1,0.1,0.2,0.1,0.3c1.2,3.3,0.9,4-1.8,6.4
		c-1.1,1-1.9,2.3-2.9,3.5c-0.3,0.3-0.7,0.6-1.1,0.6c-1.9-0.1-2.4,0.5-1.8,2.3c0.1,0.2,0.1,0.4,0.2,0.5c-0.9,0.8-2.6,1.1-2.1,2.8
		c0.4,1.4,1.6,1.9,3.1,2c0.2,1.2,0,2.8,1.9,3.1c-0.4,1.7-0.8,3.3-1.2,5.2c-1.3-2.1-2.7-0.8-4.2-0.6c0.2-0.6,0.4-1.2,0.4-1.7
		c0-0.5-0.2-1.5-0.4-1.6c-0.6,0-1.4,0.1-1.9,0.5c-0.5,0.4-0.8,1.2-1.1,1.8c-0.8-0.2-1.8-0.5-2.7-0.4c-0.6,0.1-1.2,0.9-1.8,1.4
		c0.5,0.5,0.8,1.2,1.4,1.6c0.7,0.5,1.6,0.6,2.4,1c-0.6,0.8-1.2,1.4-1.7,2.1c-0.2,0.3-0.4,1.1-0.2,1.2c0.4,0.3,1,0.4,1.4,0.2
		c0.8-0.3,1.5-0.8,2.2-1.1c1.3,2.2,1.9,2.5,3.1,1.7c1-0.6,0.9-1.8-0.2-3.5c0.9-0.2,1.8-0.4,2.9-0.7c-0.3,1.1-0.7,2.2-1,3.2
		c-0.1,0.3-0.2,0.6-0.2,0.9c0.2,1.3,0,2.3-1.3,3.1c-1,0.6-1,1.4-0.2,2.4c1.1,1.4,1,1.7-0.8,2.2c-1.1,0.3-2.2,0.8-3.2,1.1
		c0.6-1.5,1.3-2.9,1.9-4.4c0.2-0.5-0.1-1.1-0.2-1.7c-0.4,0.2-1,0.3-1.3,0.7c-0.8,1-1.5,2-2.1,2.9c-0.8-1.2-1.6-2.6-2.5-3.7
		c-0.4-0.5-1.2-0.5-1.8-0.8c0.8-1.1,0.7-2.2,0-3.3c1.4-0.5,2.3-1.3,1.8-2.8c-0.6-1.8-2.2-0.8-3.4-1.1c0.4-2.2,0.1-2.9-1.1-3.3
		c-1.4-0.4-2.3,0.2-3,1.7c-1.1-0.1-2.3-0.6-3.1-0.3c-0.5,0.2-0.4,1.7-0.7,2.9c-0.7,0.3-1.6,1-1.4,2.4c0.3,1.7,1.6,2,3.1,2.2
		c0.1,1.3,0,2.8,1.7,3c1.6,0.2,2.4-0.7,2.6-1.9C264.1,50.4,265.2,50.6,266.2,50.8L266.2,50.8z M256.4,62.8c1.6-0.6,3.3-1.1,4.9-1.9
		c1-0.5,0.9-1.8-0.2-2.2c-0.6-0.2-1.4-0.3-2-0.1c-1.4,0.5-2.7,1.2-4,1.7c-0.3,0.1-0.6,0.3-1.2,0.5c1.2-2.1,1.7-4.1,1.6-6.2
		c-0.1-0.9-0.4-1.5-1.5-1.6c-1-0.1-1.6,0.3-1.9,1.2c-0.2,0.8-0.4,1.6-0.4,2.4c-0.1,1.2,0,2.4,0,4c-0.8-1.3-1.4-2.2-1.9-3.2
		c-0.6-0.9-1-1.8-1.7-2.6c-0.3-0.4-1.1-0.7-1.4-0.6c-0.4,0.2-0.7,1-0.6,1.4c0.2,1,0.7,1.9,1.2,2.8c0.3,0.5,0.7,1,1.2,1.6
		c-1.8,0.1-3.3,0.1-4.8,0.3c-0.6,0.1-1.1,0.7-1.6,1.1c0.5,0.4,0.9,1.1,1.5,1.2c1.5,0.4,3,0.6,4.6,0.9c-0.1,0.3-0.2,0.5-0.3,0.8
		c-0.5,1.1-1.1,2.2-1.5,3.3c-0.2,0.8-0.5,1.9,0.6,2.4c1.1,0.5,1.9-0.3,2.4-1.2c0.6-1.1,1.2-2.3,1.9-3.5c0.1,0.2,0.3,0.4,0.4,0.6
		c0.6,1.3,1.1,2.7,1.8,4c0.2,0.4,0.9,0.5,1.4,0.7c0.1-0.5,0.5-1,0.4-1.4c-0.3-1.2-0.7-2.4-1.1-3.7c0.4,0.1,0.8,0.3,1.2,0.4
		c1.2,0.3,2.4,0.7,3.6,0.9c0.5,0.1,1.1-0.4,1.6-0.6c-0.3-0.6-0.4-1.3-0.8-1.6C258.6,63.7,257.4,63.3,256.4,62.8L256.4,62.8z
		 M256.1,17.1l0.2-0.4c1.3,2.6,3.4,2.8,4.9,0.4c0.5-0.8,1-0.9,1.8-1.1c0.8-0.2,1.8-0.9,2.1-1.7c0.4-1-0.7-1.5-1.4-1.9
		c-0.3-0.2-0.6-0.2-0.9-0.4c0.1,0,0.3,0,0.4,0c0.2-1,0.8-2.5,0.4-3c-0.6-0.6-2-0.6-3.3-0.8c-0.6-1.4-1.3-1.8-2.7-1.6
		c-1.8,0.4-1.4,1.9-1.5,3.1c-2.4-0.7-3.3-0.6-3.7,0.9c-0.2,0.6,0,1.4,0.3,1.9c0.4,0.5,1.1,0.7,1.8,1c-0.8,0.7-2.1,1.4-1.2,2.5
		C253.8,16.8,255.1,16.8,256.1,17.1L256.1,17.1z M266.5,73.9c1.3-0.4,2.1-1.2,1.8-2.6c-0.5-2.1-2.3-1.1-3.6-1.3
		c1-1.6,0.8-2.4-0.5-3.1c-0.5-0.2-1.2-0.5-1.6-0.3c-0.8,0.5-1.5,1.2-2,1.6c-1.1-0.1-2.3-0.5-3-0.1c-0.5,0.2-0.4,1.7-0.6,2.8
		c-0.9,0.3-1.7,1.1-1.4,2.6c0.4,1.6,1.7,1.8,3.1,2c0,1.4,0,2.8,1.8,3.1c1.7,0.2,2.3-0.9,2.6-2.4c1.1,1,2.2,1.6,3.4,0.7
		C267.7,76.1,266.9,75,266.5,73.9L266.5,73.9z M251.5,47.5c1.3-2.3,1.2-3.4-0.4-4c-0.4-0.2-1.3-0.3-1.5-0.1c-0.6,0.7-1,1.7-1.5,2.5
		c-0.9-0.6-1.3-2.6-3.1-1.7c-1,0.5-0.7,1.6,0.6,3.4c-0.6,0.5-1.4,0.8-1.9,1.4c-0.4,0.5-0.7,1.4-0.5,1.9c0.4,0.9,1.3,1.1,2.3,0.6
		c0.8-0.4,1.7-0.8,2.6-1.2c0.2,0.8,0.3,1.7,0.6,2.4c0.2,0.5,0.9,1.1,1,1.1c0.5-0.2,1.1-0.7,1.3-1.2c0.3-0.6,0.2-1.3,0.3-1.9
		c2.5,0.3,3.3,0,3.4-1.1C254.8,48.4,253.8,47.8,251.5,47.5L251.5,47.5z M246.1,74.2c-0.7,0.4-1.5,0.7-1.8,1.3
		c-0.4,0.7-0.4,1.6-0.2,2.3c0.1,0.3,1.3,0.4,1.9,0.3c0.9-0.2,1.7-0.8,2.6-1.2c0.2,0.9,0.2,1.7,0.6,2.5c0.2,0.4,0.8,1,1.1,1
		c0.4,0,1-0.6,1.1-1c0.2-0.7,0.2-1.5,0.3-2.2c1.2,0.1,2.8,1,3.2-0.7c0.6-2.4-1.9-2-3.1-2.7c1.3-1.9,1.2-3.2-0.2-3.7
		c-0.6-0.2-1.7-0.1-2.1,0.3c-0.5,0.5-0.6,1.4-0.9,2.3c-0.8-1.1-1.3-2.7-3.1-2C244.4,71.2,244.7,72.4,246.1,74.2L246.1,74.2z
		 M268.7,31.5c-1.3-0.4-1.3-3.3-3.4-1.5c-1.8,1.6,0.7,2.1,0.9,3.3c-0.5,0.2-1,0.3-1.4,0.6c-1,0.5-1.6,1.9-1.1,2.8
		c0.6,1.1,1.6,0.8,2.5,0.4c0.7-0.3,1.4-0.8,2.1-1.2c0.3,1,0.6,1.9,1,2.8c0.1,0.3,0.6,0.8,0.8,0.8c0.4-0.1,0.9-0.5,1-0.8
		c0.2-0.7,0.3-1.5,0.4-2.3c2.9,0,3.3-0.1,3.3-1.1c0-0.4-0.1-1-0.4-1.2c-0.9-0.5-1.8-0.8-2.7-1.2c1.5-2.6,1.5-2.6-0.1-3.6
		C269,27.6,269.5,30.6,268.7,31.5L268.7,31.5z M249.1,90.9c0.6,0.9,1.1,1.6,1.6,2.4c0.5-0.7,0.9-1.4,1.2-1.8
		c0.8-0.4,1.8-0.7,1.9-1.1c0.4-1.4-1-1.4-1.9-1.7c0.8-1.6,0.7-2.3-0.4-2.7c-1.6-0.6-1.8,0.7-2.1,1.7c-0.8-0.4-0.9-2.1-2.2-1.1
		c-1.6,1.2,0.7,1.5,0.5,2.5c-1,0.4-2.4,0.9-1.7,2.2C247.1,93,248.3,90.9,249.1,90.9L249.1,90.9z M234,99.5c0,0-0.5,0.1-0.6,0.4
		c-0.2,0.6-0.3,1.3-0.5,1.9c0.6,0,1.3,0.3,1.7,0c1.3-0.8,1.9-0.6,2.1,0.9c0,0.3,0.5,0.6,0.8,0.9c0.2-0.3,0.6-0.6,0.7-0.9
		c0.1-0.4,0.1-0.9,0.2-1.4c0.1,0.1,0.1,0.2,0.2,0.3c0.7-0.3,2-0.4,2.1-0.9c0.5-1.7-1.4-1.3-2.1-1.9c0.8-1.5,0.7-2.3-0.4-2.7
		c-1.7-0.5-1.4,1.1-1.8,1.8c-1-0.1-1.1-2.3-2.4-1.1C233.6,97.2,233.9,98.4,234,99.5L234,99.5z"/>
	<path class="st1" d="M246.4,27.2c0.3-0.9,0.6-1.8,0.9-2.6c1.7,0.8,3.2,1.4,4.4,2c-0.2,2.4-0.4,4.7-0.6,7
		C249.3,31.9,249.1,28.8,246.4,27.2L246.4,27.2z"/>
	<path class="st1" d="M235.2,44.6c-0.2-0.8-0.3-1.4-0.5-2c0.9,0.1,1.7,0.2,2.8,0.3C236.7,43.4,236.1,44,235.2,44.6L235.2,44.6z"/>
	<path class="st0" d="M88.8,43.5c-3.1-0.2-6.2-0.5-9.3-0.7c0.2-1.1,2.5-3.8,3.3-3.9c0.2,0,0.5,0,0.7,0.1c1.8,1.4,3.7,2.8,5.5,4.2
		C88.9,43.3,88.8,43.4,88.8,43.5L88.8,43.5z"/>
	<path class="st0" d="M256.4,62.8c1,0.4,2.2,0.8,3.3,1.5c0.4,0.3,0.5,1.1,0.8,1.6c-0.5,0.2-1.1,0.7-1.6,0.6
		c-1.2-0.2-2.4-0.6-3.6-0.9c-0.4-0.1-0.9-0.3-1.2-0.4c0.4,1.3,0.9,2.5,1.1,3.7c0.1,0.4-0.2,0.9-0.4,1.4c-0.5-0.2-1.2-0.3-1.4-0.7
		c-0.7-1.3-1.2-2.7-1.8-4c-0.1-0.2-0.2-0.4-0.4-0.6c-0.6,1.2-1.3,2.4-1.9,3.5c-0.5,0.9-1.3,1.7-2.4,1.2c-1.1-0.5-0.8-1.6-0.6-2.4
		c0.4-1.2,1-2.2,1.5-3.3c0.1-0.2,0.2-0.5,0.3-0.8c-1.6-0.3-3.1-0.5-4.6-0.9c-0.6-0.2-1-0.8-1.5-1.2c0.5-0.4,1-1,1.6-1.1
		c1.5-0.2,3-0.2,4.8-0.3c-0.4-0.6-0.9-1-1.2-1.6c-0.5-0.9-0.9-1.8-1.2-2.8c-0.1-0.4,0.2-1.2,0.6-1.4c0.3-0.2,1.1,0.2,1.4,0.6
		c0.7,0.8,1.1,1.7,1.7,2.6c0.6,1,1.2,2,1.9,3.2c0-1.5-0.1-2.7,0-4c0.1-0.8,0.2-1.6,0.4-2.4c0.3-0.8,0.9-1.3,1.9-1.2
		c1,0.1,1.4,0.7,1.5,1.6c0.1,2.1-0.3,4.1-1.6,6.2c0.6-0.2,0.9-0.4,1.2-0.5c1.3-0.6,2.6-1.3,4-1.7c0.6-0.2,1.4-0.1,2,0.1
		c1.1,0.4,1.3,1.8,0.2,2.2C259.7,61.7,258,62.2,256.4,62.8L256.4,62.8z"/>
	<path class="st0" d="M256.1,17.1c-0.9-0.3-2.2-0.3-2.8-1c-0.8-1.1,0.4-1.8,1.2-2.5c-0.6-0.3-1.4-0.5-1.8-1
		c-0.3-0.5-0.5-1.4-0.3-1.9c0.4-1.4,1.3-1.6,3.7-0.9c0.1-1.2-0.3-2.7,1.5-3.1c1.4-0.3,2,0.2,2.7,1.6c1.3,0.3,2.7,0.2,3.3,0.8
		c0.4,0.5-0.2,1.9-0.4,3c-0.1,0-0.3,0-0.4,0c0.3,0.1,0.6,0.2,0.9,0.4c0.8,0.4,1.9,1,1.4,1.9c-0.3,0.8-1.3,1.5-2.1,1.7
		c-0.8,0.2-1.3,0.3-1.8,1.1c-1.5,2.4-3.6,2.2-4.9-0.4L256.1,17.1L256.1,17.1z"/>
	<path class="st0" d="M266.5,73.9c0.4,1.1,1.1,2.2,0.1,3c-1.2,0.9-2.3,0.2-3.4-0.7c-0.3,1.5-0.9,2.7-2.6,2.4
		c-1.8-0.2-1.8-1.7-1.8-3.1c-1.4-0.1-2.8-0.3-3.1-2c-0.3-1.4,0.5-2.2,1.4-2.6c0.2-1.2,0.1-2.6,0.6-2.8c0.8-0.4,1.9,0,3,0.1
		c0.5-0.4,1.1-1.2,2-1.6c0.4-0.2,1.1,0,1.6,0.3c1.4,0.7,1.5,1.5,0.5,3.1c1.3,0.3,3.2-0.8,3.6,1.3C268.7,72.7,267.8,73.5,266.5,73.9
		L266.5,73.9z"/>
	<path class="st0" d="M266.2,50.8c-1.1-0.2-2.2-0.3-3.5-0.5c-0.2,1.2-1,2.2-2.6,1.9c-1.7-0.2-1.6-1.7-1.7-3
		c-1.5-0.2-2.8-0.4-3.1-2.2c-0.2-1.4,0.7-2,1.4-2.4c0.2-1.2,0.2-2.7,0.7-2.9c0.8-0.4,2,0.1,3.1,0.3c0.7-1.5,1.7-2.1,3-1.7
		c1.2,0.4,1.5,1.1,1.1,3.3c1.2,0.3,2.8-0.7,3.4,1.1c0.5,1.5-0.4,2.3-1.8,2.8C266.8,48.6,267,49.7,266.2,50.8L266.2,50.8L266.2,50.8z
		"/>
	<path class="st0" d="M251.5,47.5c2.4,0.3,3.4,1,3.2,2.2c-0.1,1.1-0.8,1.3-3.4,1.1c-0.1,0.6,0,1.4-0.3,1.9c-0.2,0.5-0.8,1-1.3,1.2
		c-0.1,0.1-0.8-0.6-1-1.1c-0.3-0.7-0.4-1.5-0.6-2.4c-0.9,0.4-1.8,0.8-2.6,1.2c-1,0.5-1.9,0.2-2.3-0.6c-0.2-0.5,0.1-1.4,0.5-1.9
		c0.5-0.6,1.3-1,1.9-1.4c-1.4-1.8-1.6-2.9-0.6-3.4c1.7-0.9,2.2,1,3.1,1.7c0.5-0.9,0.9-1.8,1.5-2.5c0.2-0.2,1-0.1,1.5,0.1
		C252.7,44.1,252.8,45.1,251.5,47.5L251.5,47.5z"/>
	<path class="st0" d="M246.1,74.2c-1.4-1.8-1.7-3-0.5-3.5c1.7-0.8,2.2,0.9,3.1,2c0.3-0.8,0.4-1.8,0.9-2.3c0.4-0.4,1.5-0.5,2.1-0.3
		c1.5,0.6,1.5,1.8,0.2,3.7c1.2,0.7,3.8,0.2,3.1,2.7c-0.4,1.7-2.1,0.7-3.2,0.7c-0.1,0.7-0.1,1.5-0.3,2.2c-0.2,0.4-0.7,1-1.1,1
		c-0.4,0-0.9-0.5-1.1-1c-0.3-0.8-0.4-1.6-0.6-2.5c-0.9,0.4-1.7,1-2.6,1.2c-0.6,0.2-1.9,0-1.9-0.3c-0.2-0.7-0.1-1.7,0.2-2.3
		C244.6,74.9,245.5,74.6,246.1,74.2L246.1,74.2z"/>
	<path class="st0" d="M268.7,31.5c0.8-1,0.3-3.9,3-2.4c1.6,0.9,1.6,1,0.1,3.6c0.9,0.4,1.9,0.7,2.7,1.2c0.3,0.2,0.4,0.8,0.4,1.2
		c0,1-0.4,1.2-3.3,1.1c-0.1,0.8-0.1,1.6-0.4,2.3c-0.1,0.4-0.6,0.7-1,0.8c-0.2,0-0.7-0.5-0.8-0.8c-0.4-0.9-0.6-1.8-1-2.8
		c-0.8,0.4-1.4,0.9-2.1,1.2c-0.9,0.4-1.9,0.7-2.5-0.4c-0.5-0.9,0-2.2,1.1-2.8c0.5-0.2,1-0.4,1.4-0.6c-0.2-1.2-2.7-1.7-0.9-3.3
		C267.4,28.2,267.4,31.2,268.7,31.5L268.7,31.5z"/>
	<path class="st0" d="M249.1,90.9c-0.8,0.1-2,2.1-3.1,0.3c-0.7-1.2,0.7-1.8,1.7-2.2c0.2-0.9-2.1-1.3-0.5-2.5c1.4-1,1.4,0.7,2.2,1.1
		c0.3-1,0.5-2.3,2.1-1.7c1.1,0.4,1.1,1.2,0.4,2.7c0.9,0.3,2.2,0.3,1.9,1.7c-0.1,0.5-1.1,0.7-1.9,1.1c-0.3,0.4-0.7,1.1-1.2,1.8
		C250.3,92.5,249.8,91.8,249.1,90.9L249.1,90.9z"/>
	<path class="st0" d="M234,99.5c-0.1-1.1-0.4-2.2-0.1-2.5c1.3-1.2,1.4,1,2.4,1.1c0.5-0.8,0.2-2.4,1.8-1.8c1.1,0.3,1.1,1.2,0.4,2.7
		c0.7,0.6,2.7,0.2,2.1,1.9c-0.1,0.5-1.4,0.6-2.1,0.9c-0.1-0.1-0.1-0.2-0.2-0.3c-0.1,0.5,0,0.9-0.2,1.4c-0.1,0.3-0.5,0.6-0.7,0.9
		c-0.3-0.3-0.7-0.6-0.8-0.9c-0.1-1.6-0.8-1.8-2.1-0.9c-0.4,0.2-1.1,0-1.7,0c0.1-0.6,0.2-1.3,0.5-1.9C233.5,99.6,234,99.5,234,99.5
		L234,99.5z"/>
</g>
</svg>
